<svg class="border shadow-md" viewBox="0 0 1062.2577777777778 597.52" xmlns="http://www.w3.org/2000/svg" preserveAspectRatio="none" style="width: 1062.26px; height: 597.52px;"><rect class="bg" id="bg" x="0" y="0" width="1062.2577777777778" height="597.52" fill="#ffffff"/><path d="M 0 -59.751999999999995 L 0 -59.75&#10;                L 153.00 -29.88&#10;                L 354.08592592592595 -59.75 L 354.08592592592595 -59.75&#10;                L 595.09 -10.75&#10;                L 708.1718518518519 -59.75 L 708.1718518518519 -59.75&#10;                L 826.20 -22.75&#10;                L 1062.2577777777778 -59.75 L 1062.2577777777778 -59.75&#10;                L 1222.26 -29.88&#10;                L 1416.3437037037038 -59.75  V 597.52 H 0 V -59.75 Z" fill="#EEEEEE"/><path d="M 0 0 L 0 0.00&#10;                L 118.03 46.00&#10;                L 354.08592592592595 0.00 L 354.08592592592595 0.00&#10;                L 549.09 58.00&#10;                L 708.1718518518519 0.00 L 708.1718518518519 0.00&#10;                L 913.17 44.00&#10;                L 1062.2577777777778 0.00 L 1062.2577777777778 0.00&#10;                L 1274.26 29.88&#10;                L 1416.3437037037038 0.00  V 597.52 H 0 V 0.00 Z" fill="#dfdfdf"/><path d="M 0 59.751999999999995 L 0 59.75&#10;                L 214.00 115.75&#10;                L 354.08592592592595 59.75 L 354.08592592592595 59.75&#10;                L 531.09 103.75&#10;                L 708.1718518518519 59.75 L 708.1718518518519 59.75&#10;                L 826.20 99.75&#10;                L 1062.2577777777778 59.75 L 1062.2577777777778 59.75&#10;                L 1180.29 89.63&#10;                L 1416.3437037037038 59.75  V 597.52 H 0 V 59.75 Z" fill="#d0d0d0"/><path d="M 0 119.50399999999999 L 0 119.50&#10;                L 118.03 167.50&#10;                L 354.08592592592595 119.50 L 354.08592592592595 119.50&#10;                L 488.09 149.38&#10;                L 708.1718518518519 119.50 L 708.1718518518519 119.50&#10;                L 826.20 149.38&#10;                L 1062.2577777777778 119.50 L 1062.2577777777778 119.50&#10;                L 1218.26 163.50&#10;                L 1416.3437037037038 119.50  V 597.52 H 0 V 119.50 Z" fill="#c1c1c1"/><path d="M 0 179.25599999999997 L 0 179.26&#10;                L 118.03 216.26&#10;                L 354.08592592592595 179.26 L 354.08592592592595 179.26&#10;                L 508.09 214.26&#10;                L 708.1718518518519 179.26 L 708.1718518518519 179.26&#10;                L 826.20 222.26&#10;                L 1062.2577777777778 179.26 L 1062.2577777777778 179.26&#10;                L 1308.26 213.26&#10;                L 1416.3437037037038 179.26  V 597.52 H 0 V 179.26 Z" fill="#b2b2b2"/><path d="M 0 239.00799999999998 L 0 239.01&#10;                L 262.00 282.01&#10;                L 354.08592592592595 239.01 L 354.08592592592595 239.01&#10;                L 574.09 274.01&#10;                L 708.1718518518519 239.01 L 708.1718518518519 239.01&#10;                L 826.20 288.01&#10;                L 1062.2577777777778 239.01 L 1062.2577777777778 239.01&#10;                L 1180.29 273.01&#10;                L 1416.3437037037038 239.01  V 597.52 H 0 V 239.01 Z" fill="#a3a3a3"/><path d="M 0 298.76 L 0 298.76&#10;                L 196.00 336.76&#10;                L 354.08592592592595 298.76 L 354.08592592592595 298.76&#10;                L 472.11 329.76&#10;                L 708.1718518518519 298.76 L 708.1718518518519 298.76&#10;                L 829.17 330.76&#10;                L 1062.2577777777778 298.76 L 1062.2577777777778 298.76&#10;                L 1180.29 328.64&#10;                L 1416.3437037037038 298.76  V 597.52 H 0 V 298.76 Z" fill="#949494"/><path d="M 0 358.51199999999994 L 0 358.51&#10;                L 118.03 388.39&#10;                L 354.08592592592595 358.51 L 354.08592592592595 358.51&#10;                L 553.09 388.39&#10;                L 708.1718518518519 358.51 L 708.1718518518519 358.51&#10;                L 826.20 389.51&#10;                L 1062.2577777777778 358.51 L 1062.2577777777778 358.51&#10;                L 1270.26 388.39&#10;                L 1416.3437037037038 358.51  V 597.52 H 0 V 358.51 Z" fill="#858585"/><path d="M 0 418.26399999999995 L 0 418.26&#10;                L 203.00 476.26&#10;                L 354.08592592592595 418.26 L 354.08592592592595 418.26&#10;                L 472.11 464.26&#10;                L 708.1718518518519 418.26 L 708.1718518518519 418.26&#10;                L 826.20 474.26&#10;                L 1062.2577777777778 418.26 L 1062.2577777777778 418.26&#10;                L 1180.29 459.26&#10;                L 1416.3437037037038 418.26  V 597.52 H 0 V 418.26 Z" fill="#767676"/><path d="M 0 478.01599999999996 L 0 478.02&#10;                L 118.03 507.89&#10;                L 354.08592592592595 478.02 L 354.08592592592595 478.02&#10;                L 472.11 507.89&#10;                L 708.1718518518519 478.02 L 708.1718518518519 478.02&#10;                L 945.17 530.02&#10;                L 1062.2577777777778 478.02 L 1062.2577777777778 478.02&#10;                L 1180.29 533.02&#10;                L 1416.3437037037038 478.02  V 597.52 H 0 V 478.02 Z" fill="#676767"/><path d="M 0 537.7679999999999 L 0 537.77&#10;                L 224.00 571.77&#10;                L 354.08592592592595 537.77 L 354.08592592592595 537.77&#10;                L 491.09 567.64&#10;                L 708.1718518518519 537.77 L 708.1718518518519 537.77&#10;                L 959.17 592.77&#10;                L 1062.2577777777778 537.77 L 1062.2577777777778 537.77&#10;                L 1184.26 568.77&#10;                L 1416.3437037037038 537.77  V 597.52 H 0 V 537.77 Z" fill="#585858"/></svg>